<?xml version="1.0" standalone="no"?>
<!DOCTYPE svg PUBLIC "-//W3C//DTD SVG 1.1//EN" "http://www.w3.org/Graphics/SVG/1.1/DTD/svg11.dtd" >
<svg xmlns="http://www.w3.org/2000/svg">
<metadata>
Created by FontForge 20120731 at Fri Nov 18 14:04:50 2016
 By admin
</metadata>
<defs>
<font id="iconfont" horiz-adv-x="1024" >
  <font-face 
    font-family="iconfont"
    font-weight="500"
    font-stretch="normal"
    units-per-em="1024"
    panose-1="2 0 6 3 0 0 0 0 0 0"
    ascent="896"
    descent="-128"
    x-height="792"
    bbox="-0.2 -224 1218 896"
    underline-thickness="0"
    underline-position="0"
    unicode-range="U+0078-E635"
  />
<missing-glyph 
 />
    <glyph glyph-name=".notdef" 
 />
    <glyph glyph-name=".notdef" 
 />
    <glyph glyph-name=".null" horiz-adv-x="0" 
 />
    <glyph glyph-name="nonmarkingreturn" horiz-adv-x="341" 
 />
    <glyph glyph-name="x" unicode="x" horiz-adv-x="1001" 
d="M281 543q-27 -1 -53 -1h-83q-18 0 -36.5 -6t-32.5 -18.5t-23 -32t-9 -45.5v-76h912v41q0 16 -0.5 30t-0.5 18q0 13 -5 29t-17 29.5t-31.5 22.5t-49.5 9h-133v-97h-438v97zM955 310v-52q0 -23 0.5 -52t0.5 -58t-10.5 -47.5t-26 -30t-33 -16t-31.5 -4.5q-14 -1 -29.5 -0.5
t-29.5 0.5h-32l-45 128h-439l-44 -128h-29h-34q-20 0 -45 1q-25 0 -41 9.5t-25.5 23t-13.5 29.5t-4 30v167h911zM163 247q-12 0 -21 -8.5t-9 -21.5t9 -21.5t21 -8.5q13 0 22 8.5t9 21.5t-9 21.5t-22 8.5zM316 123q-8 -26 -14 -48q-5 -19 -10.5 -37t-7.5 -25t-3 -15t1 -14.5
t9.5 -10.5t21.5 -4h37h67h81h80h64h36q23 0 34 12t2 38q-5 13 -9.5 30.5t-9.5 34.5q-5 19 -11 39h-368zM336 498v228q0 11 2.5 23t10 21.5t20.5 15.5t34 6h188q31 0 51.5 -14.5t20.5 -52.5v-227h-327z" />
    <glyph glyph-name="qianbao" unicode="&#xe600;" horiz-adv-x="1000" 
d="M817 361q-66 76 -155 116q81 11 130 -43q5 -6 13 -6q6 0 11 5q6 5 6.5 12t-4.5 13q-50 54 -126 56q65 29 124 -4q6 -3 13 -1t10.5 8t2 13t-8.5 11q-26 15 -54 19t-48 1.5t-44.5 -13t-36.5 -18t-32 -20.5l-0.5 -0.5t-1.5 -0.5q-8 72 42 144q1 2 2 3l1 2q30 47 19 68
q-9 17 -35 17q-16 0 -46 -8q-25 -6 -35 -6q-13 0 -21 8q-44 45 -75 45t-62 -42q-10 -13 -26.5 -16.5t-51.5 -3.5q-64 0 -76 -28q-10 -26 23 -59q1 -1 4 -3q69 -65 67 -144q-98 -28 -178 -129q-42 -52 -65 -110.5t-23 -112.5q0 -73 23 -121q24 -51 75 -80q89 -49 318 -49
t318 50q51 29 75 79q23 48 23 121q0 119 -95 227zM357 585h1v0q6 -1 12 -1q28 0 48 19q30 27 39 27q11 -1 29 -24q15 -18 39 -20q34 -3 65 25q4 3 9 7q-27 -64 -15 -129q-72 -36 -146 -24q-31 5 -57 17q2 54 -24 103zM434 719q21 28 34 28q16 0 50 -34q18 -19 46 -19
q14 0 43 7q22 6 32 6v-3q1 -8 -35 -37q-24 -18 -37 -30q-20 -18 -39 -17q-9 1 -15 8q-27 35 -53 37q-17 1 -30.5 -8t-35.5 -29q-12 -11 -30 -8q-38 5 -73 61q13 4 37 4q28 0 42 1.5t33 9t31 23.5zM797 -36q-82 -45 -301 -45q-220 0 -301 45q-42 23 -61 63.5t-19 106.5
q0 101 80 201q36 45 79.5 76t85.5 42q31 -16 70 -22q22 -4 43 -4q69 0 133 34q67 -20 128.5 -68.5t102 -118t40.5 -140.5q0 -65 -19 -105.5t-61 -64.5zM559 333l-42 -77q-16 -31 -20 -42h-1q-11 25 -62 119h-39l73 -126h-60v-27h70v-39h-70v-28h70v-55h35v55h68v28h-68v39
h68v27h-58l73 126h-37z" />
    <glyph glyph-name="paizhao" unicode="&#xe601;" 
d="M528.5 538q-94.5 0 -161.5 -67.5t-67 -162t67 -161.5t161.5 -67t162 67t67.5 161.5t-67.5 162t-162 67.5zM528.5 107q-83.5 0 -142.5 59t-59 142.5t59 143t142.5 59.5t143 -59.5t59.5 -143t-59.5 -142.5t-143 -59zM924 574h-180q-5 0 -24 29q-9 14 -14 21t-14.5 14
t-19.5 7h-287q-14 0 -24 -10.5t-24 -31.5q-18 -29 -24 -29h-179q-21 0 -35 -14.5t-14 -35.5v-484q0 -21 14 -35.5t35 -14.5h790q20 0 34.5 14.5t14.5 35.5v484q0 21 -14.5 35.5t-34.5 14.5zM924 17h-790q-9 0 -16 6.5t-7 16.5v484q0 10 7 16.5t16 6.5v0h179q10 0 19 7t14 14
t14 21q19 30 25 30h287q7 0 26 -30q8 -14 13 -21t14.5 -14t18.5 -7h180q9 0 15.5 -6.5t6.5 -16.5v-484v0q0 -10 -6.5 -16.5t-15.5 -6.5zM242 488h-18q-15 0 -25.5 -10.5t-10.5 -25t10.5 -25t25.5 -10.5h18q14 0 24.5 10.5t10.5 25t-10.5 25t-24.5 10.5z" />
    <glyph glyph-name="right" unicode="&#xe60a;" 
d="M827.5 615q-85.5 86 -200.5 116.5t-230.5 0t-201 -116.5t-116 -201t0 -230t116 -200.5t201 -116t230.5 0t200.5 116t116 200.5t0 230t-116 201zM779 432l-357 -348q-8 -8 -18 -8t-17 8l-166 173q-7 7 -7 17.5t7 18t17.5 7.5t17.5 -8l149 -156l339 331q7 7 17.5 7t17.5 -7
t7 -17.5t-7 -17.5z" />
    <glyph glyph-name="iconrenzheng" unicode="&#xe602;" 
d="M527 -136q-7 -2 -15 -2t-15 2q-62 17 -114 46.5t-89 65t-67.5 78.5t-48 86.5t-31 89.5t-17 88.5t-5 82t3.5 70.5q3 20 18 33.5t35 13.5q5 1 10 2.5t14 8t15.5 17.5t11.5 32.5t5 49.5q0 23 16 39q8 7 22 16t43.5 23t80 22.5t112.5 8.5t112.5 -8.5t80 -22.5t43.5 -23
t22 -16q16 -16 16 -39q0 -28 5 -49.5t11.5 -32.5t15.5 -17.5t13.5 -8t8.5 -2.5q21 0 36.5 -13.5t18.5 -33.5q5 -31 3.5 -70.5t-5 -82t-17 -88t-31 -89.5t-48 -87t-67.5 -78.5t-89 -65t-114 -46.5zM844 448q-2 18 -15.5 29.5t-31.5 11.5l-8 2t-11.5 7t-13.5 15.5t-10.5 28
t-4.5 42.5q0 20 -14 34q-6 7 -18 14.5t-38 19.5t-69.5 19.5t-97.5 7.5t-97.5 -7.5t-69.5 -19.5t-38 -19.5t-18 -14.5q-14 -14 -14 -34q0 -24 -4.5 -42.5t-10.5 -28t-13.5 -15.5t-12 -7t-8.5 -2q-18 0 -31 -11.5t-15 -29.5q-5 -27 -3.5 -61t4.5 -71t14.5 -76.5t27 -78t42 -75
t58.5 -67.5t77.5 -56.5t98.5 -41.5q6 -1 13 -1t13 1q53 16 98.5 41.5t77.5 56.5t58.5 67.5t42 75t27 78t14.5 76.5t4.5 71t-3.5 61zM618 377h-79v-80q0 -11 -8 -19t-19 -8t-19 8t-8 19v80h-79q-11 0 -19 7.5t-8 19t8 19t19 7.5h79v80q0 11 8 19t19 8t19 -8t8 -19v-80h79
q11 0 19 -7.5t8 -19t-8 -19t-19 -7.5z" />
    <glyph glyph-name="bao" unicode="&#xe603;" 
d="M511.5 -170q-95.5 0 -182.5 37q-85 36 -150 101t-101 149q-37 88 -37 183.5t37 182.5q36 85 101 150t150 100q87 37 182.5 37t182.5 -37q85 -35 150 -100t101 -150q37 -87 37 -182.5t-37 -183.5q-36 -84 -101 -149t-150 -101q-87 -37 -182.5 -37zM511.5 729
q-116.5 0 -215.5 -57.5t-156.5 -156t-57.5 -215t57.5 -215.5t156.5 -156.5t215.5 -57.5t215.5 57.5t156.5 156.5t57.5 215.5t-57.5 215t-156.5 156t-215.5 57.5zM398 512q3 13 -2 24q-6 9 -17 13q-13 3 -22 -3h-1q-10 -4 -15 -18q-14 -54 -40 -98q-22 -37 -58 -75
q-9 -11 -10 -22q0 -10 9 -19q9 -7 21 -8q12 1 22 11q4 4 10 11l6 5v-251q0 -13 8 -22q8 -7 20 -8q13 1 21 8q8 9 9 22v335l-1 2l1 2q20 38 39 91zM557 58q8 -7 21 -8q12 1 21 8q8 9 8 22v132l6 -7q13 -16 31 -33q39 -38 84 -68q13 -7 25 -5q10 1 19 11q6 9 5 20
q-2 11 -15 19q-58 36 -89 69q-17 16 -33 39l-3 5h106q13 0 21 8q8 7 8 19t-8 20q-7 7 -21 7h-136v31h82q18 0 33 14q14 14 15 31v101q-1 16 -12 26q-15 12 -36 12h-230q-16 0 -28 -12q-12 -11 -12 -26v-101q0 -17 12 -32q10 -12 28 -13h90v-31h-135q-13 0 -21 -7
q-8 -8 -8 -20t8 -20q8 -7 21 -7h103l-4 -5q-20 -28 -44 -51q-31 -29 -74 -56v0q-13 -7 -16 -18v-1q-3 -8 3 -20q6 -9 18 -13q12 -1 25 5q36 21 77 60q20 20 42 45l5 7v-135q0 -13 8 -22zM492 400q-6 0 -10.5 4.5t-4.5 9.5v49q0 6 5 11q4 4 10 4h172q5 0 10 -4l1 -1
q4 -4 4 -10v-49v-1q-1 -4 -4 -8v-1q-5 -4 -11 -4h-172z" />
    <glyph glyph-name="iconupload" unicode="&#xe604;" 
d="M935 -85l-24 135l-28 473q-1 11 -9 18.5t-19 7.5h-131q-11 75 -67.5 125t-133.5 50h-21q-77 0 -134 -50t-67 -125h-132q-12 0 -20 -7.5t-8 -18.5l-29 -473l-24 -141q-3 -13 5.5 -23t21.5 -10h793h1q11 0 19.5 8.5t8.5 19.5q0 6 -2 11zM698.5 354q11.5 0 19.5 8.5t8 19.5
v33q15 -13 15 -33q0 -18 -13 -31t-31.5 -13t-31.5 13t-13 31q0 22 18 36v-36q0 -11 8.5 -19.5t20 -8.5zM502 668h21q53 0 93.5 -34t50.5 -85h-309q10 51 50.5 85t93.5 34zM326.5 354q11.5 0 20 8.5t8.5 19.5v35q16 -14 16 -35q0 -18 -13 -31t-31.5 -13t-31.5 13t-13 31
q0 21 17 35v-35q0 -11 8 -19.5t19.5 -8.5zM299 493v-44q-20 -8 -32.5 -26.5t-12.5 -40.5q0 -30 21.5 -51t51.5 -21t51 21t21 51q0 22 -12 40.5t-32 26.5v44h315v-43q-20 -8 -33 -26.5t-13 -41.5q0 -30 21.5 -51t51.5 -21t51 21t21 51q0 22 -12 40t-31 26v45h103l25 -432
h-685l26 432h104zM149 -68l17 101h691l18 -101h-726z" />
    <glyph glyph-name="weibo" unicode="&#xe62a;" 
d="M730 320l15 35q29 92 -54 107q-67 12 -205 -33q34 29 33 73t-30 65q-30 19 -69 18.5t-84 -22.5t-90 -54.5t-86 -76.5t-72.5 -89.5t-50.5 -93t-19 -86.5q0 -44 24.5 -89t71 -84t126.5 -64t180 -25q101 0 183 21t132.5 53t85 71.5t48 75t13.5 65.5q0 37 -15.5 64t-38 39.5
t-44.5 20t-38 8.5zM432 -49.5q-123 -11.5 -215.5 39.5t-100 134.5t73.5 150.5t204 78.5t215.5 -39.5t100.5 -134.5t-73.5 -150.5t-204.5 -78.5zM374 273q-67 -11 -107 -59.5t-30.5 -105.5t63.5 -89.5t120.5 -21t107 60t30.5 105.5t-63.5 89t-120.5 21zM358.5 56
q-21.5 -6 -40.5 4t-24.5 29.5t6 37.5t33 24t40.5 -3.5t24.5 -29.5t-6 -38t-33 -24zM433 141q-11 0 -19 7.5t-8 18.5t8 19t19 8t19 -8t8 -19t-8 -18.5t-19 -7.5zM951 604q-44 57 -113 80.5t-153 11.5q-14 -2 -23 -13.5t-7 -25.5t13.5 -22.5t26.5 -6.5q134 19 201 -66
q30 -39 38 -89t-10 -93q-5 -13 0.5 -26t18.5 -19q7 -2 13 -2q24 0 32 21q25 60 14.5 129t-51.5 121zM718 570q-14 -2 -22.5 -13.5t-6.5 -25.5t13.5 -22.5t25.5 -6.5q49 7 72 -22q10 -13 12.5 -30t-3.5 -32q-5 -13 0.5 -26t18.5 -19q7 -2 13 -2q24 0 33 21q12 32 7 67.5
t-27 62.5q-47 61 -136 48z" />
    <glyph glyph-name="gouwuche2" unicode="&#xe605;" 
d="M944 691h-42q-26 0 -44 -18t-18 -44v-438q0 -51 -36.5 -88t-88.5 -37h-500q-52 0 -88.5 37t-36.5 88v313q0 52 36.5 88.5t88.5 36.5h437q9 0 15 -6t6 -15v-21q0 -8 -6 -14.5t-15 -6.5h-437q-26 0 -44.5 -18t-18.5 -44v-313q0 -26 18.5 -44t44.5 -18h500q26 0 44 18t18 44
v188v250q0 52 37 88.5t88 36.5h42q9 0 15 -6t6 -15v-21q0 -8 -6 -14.5t-15 -6.5zM652 233h-375q-8 0 -14.5 6t-6.5 15v21q0 8 6.5 14t14.5 6h375q9 0 15 -6t6 -14v-21q0 -9 -6 -15t-15 -6zM652 400h-375q-8 0 -14.5 6t-6.5 14v21q0 9 6.5 15t14.5 6h375q9 0 15 -6t6 -15v-21
q0 -8 -6 -14t-15 -6zM194 4q26 0 44 -18.5t18 -44.5t-18 -44t-44 -18t-44.5 18t-18.5 44t18.5 44.5t44.5 18.5zM788 10q30 0 51.5 -21.5t21.5 -51.5t-21.5 -51.5t-51.5 -21.5t-51.5 21.5t-21.5 51.5t21.5 51.5t51.5 21.5z" />
    <glyph glyph-name="dianhua" unicode="&#xe606;" 
d="M788 208q-10 2 -26.5 -6.5t-27.5 -17.5l-11 -10q34 -21 59 -47t36.5 -45.5t18 -39.5t7 -27t0.5 -11q28 14 42 38q8 13 10.5 25.5t-3.5 32t-23 43.5q-41 58 -82 65zM335 604q-10 -1 -23 -14t-21 -25l-8 -13q39 -10 70 -27t48 -33.5t28.5 -32t15.5 -24.5l4 -10q23 31 30 58
q6 21 -3 38.5t-43 43.5q-57 44 -98 39zM511 744q-91 0 -173.5 -35t-142.5 -94.5t-95.5 -142t-35.5 -172.5t35.5 -172t95.5 -141.5t142.5 -95t173.5 -35.5q164 0 290 107q31 7 26 32q-7 30 -40 81.5t-78 78.5q-3 1 -8 3t-17.5 -0.5t-22.5 -15.5q-2 0 -4.5 -0.5t-13 1.5t-22 7
t-31 19t-41.5 35q-6 5 -24.5 23t-24.5 24t-21 21.5t-20 22.5t-15 20.5t-12.5 23t-6 22t-2 24t5.5 23.5q-1 1 0.5 4.5t-2.5 13t-11 20t-25.5 26t-44.5 30.5q-27 15 -47 21.5t-29.5 7.5t-17 -4.5t-8.5 -8.5t-4 -11l-4.5 -11.5t-7 -21t-5 -24t-1 -29.5t6.5 -30q11 -28 29.5 -61
t68.5 -97t119 -129q93 -88 155.5 -126.5t108.5 -39.5q-93 -51 -199 -51q-113 0 -209 55.5t-151.5 150.5t-55.5 207t55.5 207.5t151.5 151t209 55.5t209 -55.5t151.5 -151t55.5 -207.5v-3.5v-3.5h31v3.5v3.5q0 90 -35.5 172.5t-95.5 142t-142.5 94.5t-173.5 35z" />
    <glyph glyph-name="shezhi" unicode="&#xe607;" 
d="M644 -105v0q-25 0 -41 18q-16 17 -42.5 35t-48.5 18q-23 0 -49.5 -18t-41.5 -34q-16 -18 -41 -18q-11 0 -21 5h-1l-107 60l-1 1q-14 10 -19 27.5t2 33.5q10 23 10 43q0 47 -33 80t-80 33h-4v0q-14 0 -24 11t-13 30q-10 48 -10 85t10 85q3 19 13.5 30t23.5 10h4
q47 0 80 33.5t33 79.5q0 21 -10 44q-7 16 -2 33.5t19 27.5l2 1l112 62h1q10 4 21 4q25 0 41 -16q15 -17 41 -34t48 -17t47.5 17t41.5 33t40 16q12 0 21 -4l2 -1l108 -60l1 -1q15 -10 20 -27.5t-2 -33.5q-10 -23 -10 -44q0 -46 33 -79.5t80 -33.5h3q14 1 24.5 -10t13.5 -30
q9 -48 9 -85t-9 -85q-3 -19 -13.5 -30t-24.5 -11h-3q-47 0 -80 -33t-33 -80q0 -20 10 -43q7 -16 2 -33.5t-20 -27.5l-1 -1l-110 -61l-1 -1q-10 -4 -21 -4zM641 -53q1 -1 3 -1v0l103 57q-13 33 -13 63q0 66 45 113.5t110 50.5q8 45 8 75t-8 75q-65 3 -110 50.5t-45 112.5
q0 31 13 64l-101 56h-1q-2 0 -3 -1q-16 -16 -38 -32q-47 -33 -88 -33t-89 34q-22 16 -37 32q-2 1 -4 1h-1l-105 -57q14 -33 14 -64q0 -65 -45 -112.5t-110 -50.5q-8 -45 -8 -75t8 -75q65 -3 110 -50.5t45 -113.5q0 -30 -14 -63l100 -55v0h3q16 18 38 34q49 35 91 35t90 -36
q23 -16 39 -34zM512 155q-62 0 -106 44t-44 106.5t44 106.5t106 44t106 -44t44 -106.5t-44 -106.5t-106 -44zM512 405q-41 0 -70 -29t-29 -70.5t29 -70.5t70 -29t70 29t29 70.5t-29 70.5t-70 29z" />
    <glyph glyph-name="info2" unicode="&#xe631;" 
d="M512 860q-97 0 -185 -37.5t-152 -101.5t-101.5 -152t-37.5 -185t37.5 -185t101.5 -152t152 -101.5t185 -37.5t185 37.5t152 101.5t101.5 152t37.5 185t-37.5 185t-101.5 152t-152 101.5t-185 37.5zM564 148h-96v288h96v-288zM516 508q-30 0 -51 21t-21 51t21 51t51 21
t51 -21t21 -51t-21 -51t-51 -21z" />
    <glyph glyph-name="suo" unicode="&#xe608;" 
d="M749 429h-452v86q0 81 60 137t148 57q86 -1 143.5 -56t57.5 -138v-43q0 -9 6 -15t15 -6t15.5 6t6.5 15v43q0 101 -69.5 168.5t-172.5 68.5h-3q-106 -1 -178 -69.5t-72 -167.5v-88q-55 -8 -92 -50t-37 -99v-279q0 -63 44 -107t106 -44h474q62 0 106 44t44 107v279
q0 63 -44 107t-106 44zM856 -1q0 -45 -31.5 -76.5t-75.5 -31.5h-474q-44 0 -75.5 31.5t-31.5 76.5v279q0 45 31.5 76.5t75.5 31.5h474q44 0 75.5 -31.5t31.5 -76.5v-279zM512 300q-53 0 -91 -38t-38 -91q0 -48 31 -83.5t77 -43.5l-0.5 -1l-0.5 -1v-65q0 -9 6.5 -15t15.5 -6
t15.5 6t6.5 15v65l-0.5 1l-0.5 1q46 8 77 43.5t31 83.5q0 53 -38 91t-91 38zM512 85q-36 0 -61 25t-25 60.5t25 61t61 25.5t61 -25.5t25 -61t-25 -60.5t-61 -25z" />
    <glyph glyph-name="zhinan" unicode="&#xe609;" 
d="M510.5 741q-89.5 0 -171 -35t-141 -94t-94 -140.5t-34.5 -171.5t34.5 -171.5t94 -140.5t141 -94t171 -35t171.5 35t141 94t94 140.5t35 171.5t-35 171.5t-94 140.5t-141 94t-171.5 35zM141 300q0 144 97 250l212 -315l311 -207q-106 -97 -250 -97q-101 0 -186 49.5
t-134.5 134.5t-49.5 185zM315 499l229 -161l-72 -71zM784 52l-210 302l-314 217q106 99 251 99q100 0 185 -49.5t134.5 -134.5t49.5 -186q0 -143 -96 -248z" />
    <glyph glyph-name="shezhi1" unicode="&#xe60b;" horiz-adv-x="1026" 
d="M509 481q-74 0 -126 -52t-52 -126t52 -126t126 -52t126.5 52t52.5 126t-52.5 126t-126.5 52zM509 175q-53 0 -90.5 37.5t-37.5 90.5t37.5 91t90.5 38t91 -38t38 -91t-38 -90.5t-91 -37.5zM899 434h-22l-2 7v0q-1 1 -1 2v0q-5 12 -9 21l-3 6l15 16q35 35 35 84.5t-35 84.5
l-16 16q-35 35 -84.5 35t-84.5 -35l-15 -15l-7 3q-10 5 -23 9l-7 3v22q0 49 -35 84t-84 35h-24q-49 0 -84 -35t-35 -84v-22l-7 -3q-13 -4 -23 -9l-6 -3l-16 15q-35 35 -84.5 35t-84.5 -35l-16 -16q-35 -35 -35 -84.5t35 -84.5l15 -16l-3 -6q-4 -9 -9 -21v-2h-1l-2 -7h-22
q-49 0 -84 -35t-35 -84v-24q0 -49 35 -84t84 -35h22l2 -7h1v-2q5 -12 9 -21l3 -6l-15 -16q-35 -35 -35 -84t35 -84l16 -17q35 -35 84.5 -35t84.5 35l16 15l6 -3q10 -4 23 -9l7 -3v-21q0 -50 35 -85t84 -35h24q49 0 84 35t35 85v21l7 3q13 5 23 9l7 3l15 -15q35 -35 84.5 -35
t84.5 35l16 17q35 35 35 84t-35 84l-15 16l3 6q4 9 9 21q0 1 1 2v0l2 7h22q49 0 84 35t35 84v24q0 49 -35 84t-84 35zM968 291q0 -7 -1 -13q-1 -2 -1 -5q-1 0 -1 -1v-1q-1 -4 -2 -6l-3 -6l-1 -1v-1q-1 -2 -2 -3q-2 -4 -6 -8v0v0l-2 -2q-3 -4 -8 -7q0 -1 -1 -1
q-15 -12 -35 -14h-2h-4h-59q-12 -49 -40 -95l42 -42q16 -16 19 -39q0 -1 1 -1v-12v-2v0q-1 -6 -1 -10q-1 -1 -1 -3q-1 -1 -1 -2v-1q-1 -4 -2 -6l-3 -6l-1 -1v-1l-2 -4q-4 -5 -9 -10l-17 -17q-4 -5 -10 -8v-1q-2 0 -4 -2h-1l-1 -1l-6 -3t-6 -2h-1v0h-2q-2 -1 -3 -1
q-4 -1 -10 -2v0v0h-2h-3q-4 0 -8 1h-1v0q-24 3 -40 19l-42 42q-46 -28 -95 -40v-58v-5v-2q-2 -19 -14 -35v-1v0q-4 -5 -8 -8l-2 -2v0q-4 -4 -8 -6q-1 -1 -3 -2h-1l-1 -1l-6 -3v0q-2 -1 -6 -2h-1h-1q-3 -1 -5 -2q-6 -1 -13 -1h-24q-7 0 -13 1l-4 2h-2h-1q-4 1 -6 2v0l-6 3
l-1 1h-1q-2 1 -3 2q-3 2 -8 6v0l-2 2q-4 3 -7 8h-1v1q-12 16 -14 35v2v5v58q-49 12 -95 40l-42 -42q-16 -16 -39 -19h-1v0q-5 -1 -9 -1h-3h-2v0v0q-6 1 -10 2q-1 0 -3 1h-2v0h-1q-4 1 -6 2l-6 3l-1 1h-1q-2 2 -4 3q-5 3 -10 8l-17 17q-5 5 -9 10q0 2 -2 4v1l-1 1l-3 6t-2 6
v2l-1 1q0 2 -1 3q0 4 -1 10v0v2q0 5 1 11v2q3 23 19 39l42 42q-28 46 -40 95h-59h-4h-2q-20 2 -35 14q-1 0 -1 1q-5 3 -8 7l-2 2v0v0q-4 4 -6 8q-1 1 -2 3v1l-1 1l-3 6t-2 6v1v1q-1 3 -2 5q-1 6 -1 13v24q0 7 1 13q1 2 2 5v1v1q1 4 2 6l3 6l1 1v1q1 2 2 3q2 3 6 8v0v0l2 2
q3 4 8 8h1q15 12 35 14h2h4h59q12 49 40 95l-42 42q-16 16 -19 39v2q-1 6 -1 11v2v0q1 6 1 10q1 1 1 4q1 0 1 1v1q1 4 2 6l3 6l1 1v1q2 2 2 4q4 5 9 10l17 17q4 5 10 9v0q2 0 4 2h1l1 1l6 3t6 2h1v0q1 0 2 1q2 0 3 1q4 0 10 1v0h2h2h9q1 -1 2 -1q23 -3 39 -19l42 -42
q46 28 95 40v59v4v2q2 20 14 35v1h1q3 5 7 8l2 2v0q5 4 8 6q1 1 3 2h1l1 1l6 3t6 2h1q1 0 1 1q3 0 5 1q6 1 13 1h24q7 0 13 -1q2 -1 5 -2h1h1q4 -1 6 -2l6 -3l1 -1h1q2 -1 3 -2q4 -2 8 -6v0l2 -2q4 -3 8 -8v0v-1q12 -15 14 -35v-2v-4v-59q49 -12 95 -40l42 42q16 16 39 19
q1 0 2 1h9h2h2h1q5 -1 9 -1q1 -1 4 -1q0 -1 1 -1h1q4 -1 6 -2l6 -3l1 -1h1l4 -2v0q6 -4 10 -9l17 -17q5 -4 9 -10l2 -4v-1l1 -1l3 -6t2 -6v-1q0 -1 1 -2q0 -2 1 -3q0 -4 1 -10v0v-2v-11q0 -1 -1 -2q-3 -23 -19 -39l-42 -42q28 -46 40 -95h59h4h2q20 -2 35 -14h1q5 -4 8 -8
l2 -2v0v0q4 -5 6 -8q1 -1 2 -3v-1l1 -1l3 -6t2 -6v-1l1 -1q0 -3 1 -5q1 -6 1 -13v-24z" />
    <glyph glyph-name="msg" unicode="&#xe60c;" 
d="M153 -40q-15 0 -20 14q-7 15 6 26q50 38 50 78q1 22 -12 32q-54 44 -82.5 99.5t-28.5 115.5q0 88 59.5 163t162.5 118.5t224 43.5t224 -43.5t162.5 -118.5t59.5 -163t-59.5 -163t-162.5 -118.5t-224 -43.5q-88 0 -170 24q-1 0 -21 -11q-80 -43 -166 -52q-1 -1 -2 -1z
M512 606q-109 0 -202 -37.5t-147 -102.5t-54 -141q0 -103 96 -182q29 -23 28 -65q0 -32 -19 -62q40 10 86 36q30 16 44 16q6 0 11 -2q75 -22 157 -22q109 0 201.5 37.5t146.5 102.5t54 141t-54 141t-146.5 102.5t-201.5 37.5zM302 327zM261 327q0 17 12 29.5t29 12.5
t29.5 -12.5t12.5 -29.5t-12.5 -29t-29.5 -12t-29 12t-12 29zM512 327zM470 327q0 17 12.5 29.5t29.5 12.5t29 -12.5t12 -29.5t-12 -29t-29 -12t-29.5 12t-12.5 29zM698 327zM657 327q0 17 12 29.5t29 12.5t29.5 -12.5t12.5 -29.5t-12.5 -29t-29.5 -12t-29 12t-12 29z" />
    <glyph glyph-name="delete" unicode="&#xe60d;" 
d="M897 553q9 0 15 6.5t6 15t-6 15t-15 6.5l-764 1q-9 0 -15 -6t-6 -15t6 -15.5t15 -6.5zM253 -80v-21h22l509 5h21v21v564q0 8 -6.5 14.5t-15 6.5t-15 -6.5t-6.5 -14.5v-564l21 22l-509 -5l22 -22v574q0 9 -6.5 15t-15 6t-15 -6t-6.5 -15v-574zM640 38q0 -9 6 -15.5
t15 -6.5t15.5 6.5t6.5 15.5v384q0 9 -6.5 15t-15.5 6t-15 -6t-6 -15v-384zM384 38q0 -9 6 -15.5t15 -6.5t15.5 6.5t6.5 15.5v384q0 9 -6.5 15t-15.5 6t-15 -6t-6 -15v-384zM512 38q0 -9 6 -15.5t15 -6.5t15.5 6.5t6.5 15.5v384q0 9 -6.5 15t-15.5 6t-15 -6t-6 -15v-384z
M425 628q0 9 6.5 15.5t15.5 6.5h166q9 0 15 -6.5t6 -15.5v-44h43v44q0 27 -19 45.5t-45 18.5h-166q-27 0 -45.5 -18.5t-18.5 -45.5v-39h42v39z" />
    <glyph glyph-name="16" unicode="&#xe634;" 
d="M512 748q-122 0 -225 -60t-163 -163t-60 -225t60 -225t163 -163t225 -60t225 60t163 163t60 225t-60 225t-163 163t-225 60zM518 -52q-96 0 -177 47t-128 128t-47 177t47 177t128 128t177 47t177 -47t128 -128t47 -177t-47 -177t-128 -128t-177 -47zM512 556h64v-320h-64
v320zM320 300h192v-64h-192v64z" />
    <glyph glyph-name="jia" unicode="&#xe60e;" 
d="M511.5 111q-9.5 0 -16.5 6.5t-7 16.5v334q0 9 7 16t16.5 7t16 -7t6.5 -16v-334q0 -10 -6.5 -16.5t-16 -6.5zM678 278h-334q-9 0 -16 6.5t-7 16t7 16.5t16 7h334q10 0 16.5 -7t6.5 -16.5t-6.5 -16t-16.5 -6.5zM511 -147q-91 0 -174 35.5t-143 95.5t-95.5 143t-35.5 174
t35.5 174t95.5 143t143 95.5t174 35.5t174 -35.5t143 -95.5t96 -143t36 -174t-36 -174t-96 -143t-143 -95.5t-174 -35.5zM511 703q-109 0 -201.5 -54t-146.5 -146.5t-54 -201.5t54 -201.5t146.5 -146.5t201.5 -54t202 54t146.5 146.5t53.5 201.5t-53.5 201.5t-146.5 146.5
t-202 54z" />
    <glyph glyph-name="shijian" unicode="&#xe60f;" 
d="M508.5 -5q-12.5 0 -21.5 -8.5t-9 -21.5t9 -22t21.5 -9t21.5 9t9 22t-9 21.5t-21.5 8.5zM248 86q-9 -9 -9 -21.5t9 -21.5t21.5 -9t21.5 9t9 21.5t-9 21.5t-21.5 9t-21.5 -9zM171 333q-13 0 -22 -9t-9 -22t9 -22t22 -9t22 9t9 22t-9 22t-22 9zM767 517q9 9 9 21.5t-9 21.5
t-21.5 9t-21.5 -9t-9 -21.5t9 -21.5t21.5 -9t21.5 9zM508 792q-100 0 -190.5 -38.5t-156.5 -104.5t-104.5 -156.5t-38.5 -190.5t38.5 -190.5t104.5 -156.5t156.5 -104.5t190.5 -38.5t191 38.5t156.5 104.5t104.5 156.5t39 190.5t-39 190.5t-104.5 156.5t-156.5 104.5
t-191 38.5zM508.5 -127q-116.5 0 -215.5 57.5t-156.5 156t-57.5 215.5t57.5 215.5t156.5 156t215.5 57.5t215 -57.5t156 -156t57.5 -215.5t-57.5 -215.5t-156 -156t-215 -57.5zM539 388v251q0 13 -9 22t-21.5 9t-21.5 -9t-9 -22v-251q-9 -3 -17 -7q-2 -2 -35 34t-77.5 85
t-65.5 69q-10 9 -24.5 10t-23.5 -8q-7 -9 -9.5 -22.5t2.5 -24.5q2 -4 50 -54.5t94.5 -98.5t47.5 -48q-4 -10 -4 -21q0 -38 27 -65t65 -27q30 0 53.5 17t33.5 44q7 15 7 29q0 7 -2 15.5t-4 12.5l-1 5q-15 41 -56 55zM508.5 271q-12.5 0 -21.5 9t-9 22t9 22t21.5 9t21.5 -9
t9 -22t-9 -22t-21.5 -9zM725 85q-9 -9 -9 -21.5t9 -21.5t21.5 -9t21.5 9t9 21.5t-9 21.5t-21.5 9t-21.5 -9z" />
    <glyph glyph-name="yingyong" unicode="&#xe632;" 
d="M512 -212q139 0 257 68.5t186.5 186.5t68.5 257t-68.5 257t-186.5 186.5t-257 68.5t-257 -68.5t-186.5 -186.5t-68.5 -257t68.5 -257t186.5 -186.5t257 -68.5zM496 503v-167q0 -8 -6 -14t-14 -6h-167q-9 0 -15 6t-6 14v167q0 9 6 15t15 6h167q8 0 14 -6t6 -15v0zM496 253
v-167q0 -9 -6 -15t-14 -6h-167q-9 0 -15 6t-6 15v167q0 9 6 15t15 6h167q8 0 14 -6t6 -15v0zM747 503v-167q0 -8 -6 -14t-15 -6h-167q-9 0 -15 6t-6 14v167q0 9 6 15t15 6h167q9 0 15 -6t6 -15v0zM747 253v-167q0 -9 -6 -15t-15 -6h-167q-9 0 -15 6t-6 15v167q0 9 6 15t15 6
h167q9 0 15 -6t6 -15z" />
    <glyph glyph-name="xuexikecheng" unicode="&#xe610;" horiz-adv-x="1218" 
d="M194 -101q-55 0 -97 46t-42 106v581q0 54 39.5 89.5t99.5 35.5h332q55 0 55 -42v-927h56v927q0 45 -31 71t-80 26h-332q-83 0 -138.5 -51t-55.5 -129v-581q0 -82 58 -145t136 -63h415v56h-415zM637 715q0 42 55 42h332q60 0 99 -35.5t39 -89.5v-581q0 -60 -41.5 -106
t-96.5 -46h-415v-56h415q78 0 136 63t58 145v581q0 78 -56 129t-138 51h-332q-50 0 -80.5 -26t-30.5 -71v-429h56v429z" />
    <glyph glyph-name="renzheng1" unicode="&#xe611;" 
d="M148 49v485h693v-174q24 -13 43 -32v227q0 9 -6 15.5t-15 6.5h-737q-9 0 -15 -6.5t-6 -15.5v-528q0 -9 6 -15t15 -6h402q-15 20 -26 43h-354v0zM458 436h-253q-8 0 -14 -6t-6 -14.5t6 -14.5t14 -6h253q9 0 15 6t6 14.5t-6 14.5t-15 6zM458 312h-253q-8 0 -14 -6t-6 -14.5
t6 -14.5t14 -6h253q9 0 15 6t6 14.5t-6 14.5t-15 6zM458 188h-253q-8 0 -14 -6t-6 -14.5t6 -14.5t14 -6h253q9 0 15 6t6 14.5t-6 14.5t-15 6zM719.5 348q-81.5 0 -138.5 -57t-57 -138t57 -138.5t138.5 -57.5t138.5 57.5t57 138.5t-57 138t-138.5 57zM706 38q-8 -8 -19 -8
t-19 8l-90 88q-7 8 -7.5 19t7.5 19t19 8t19 -7l71 -70l133 133q8 8 19 8t19 -8t8 -19t-8 -19z" />
    <glyph glyph-name="info" unicode="&#xe62e;" 
d="M0 288q0 -104 40.5 -199t109 -163.5t163.5 -109t199 -40.5t199 40.5t163.5 109t109 163.5t40.5 199t-40.5 199t-109 163.5t-163.5 109t-199 40.5t-199 -40.5t-163.5 -109t-109 -163.5t-40.5 -199v0zM57 288q0 93 36 177t97 145t145 97t177 36t177 -36t145 -97t97 -145
t36 -177t-36 -177t-97 -145t-145 -97t-177 -36t-177 36t-145 97t-97 145t-36 177zM457 8v380h108v-380h-108zM449 510q0 26 17 42q18 16 46 16t46 -17q17 -16 17 -41t-18 -41.5t-45 -16.5t-46 17q-17 17 -17 41z" />
    <glyph glyph-name="fabudaosns" unicode="&#xe612;" 
d="M848 -148h-672q-39 0 -75.5 36t-36.5 76v576q0 38 34.5 59t77.5 21h368q13 0 22.5 -9.5t9.5 -22.5t-9.5 -22.5t-22.5 -9.5h-368q-48 0 -48 -16v-576q0 -11 16 -29.5t32 -18.5h672q3 0 6.5 5t6.5 16.5t3 26.5v352q0 13 9.5 22.5t22.5 9.5t22.5 -9.5t9.5 -22.5v-352
q0 -50 -24.5 -81t-55.5 -31zM446 81q-11 0 -19.5 6.5t-11.5 16.5q-2 10 -5.5 24.5t-6.5 52.5t0.5 74t20.5 82t47 82q125 150 450 115q13 -1 21.5 -11.5t7 -23.5t-12 -21.5t-23.5 -6.5q-291 30 -394 -93q-24 -29 -37.5 -66.5t-16 -67t0.5 -61.5t5.5 -43t4.5 -18
q3 -13 -3 -24.5t-19 -14.5q-5 -2 -9 -2zM720 279q-15 0 -24 11q-9 9 -8 22.5t11 22.5l198 174l-200 200q-9 10 -9 23t9.5 22.5t22.5 9.5t23 -9l248 -248l-250 -220q-9 -8 -21 -8z" />
    <glyph glyph-name="gouwu" unicode="&#xe613;" 
d="M12 -163h112l74 711h-112zM941 548h-178q-7 26 -19.5 53t-35 56.5t-50.5 52.5t-69 38t-87.5 15t-86.5 -15t-67 -37.5t-47.5 -52.5t-32 -57t-16.5 -53h-24v-711h784zM502 692q42 0 76.5 -15t56 -40t34 -46t20.5 -43h-365q5 16 12 32.5t22 37.5t33 36.5t47 26.5t64 11z
M801 218q-5 -46 -41.5 -93.5t-76.5 -74.5t-63 -27q-20 0 -59.5 27t-77 74t-44.5 92q-7 46 3 79.5t31.5 48.5t47.5 17.5t53 -10t46 -36.5q24 29 58 40t63.5 1.5t48 -46t11.5 -92.5z" />
    <glyph glyph-name="jikediancanicon08" unicode="&#xe614;" 
d="M509.5 755q-92.5 0 -177 -36t-145.5 -97t-97 -145.5t-36 -177t36 -177t97 -145.5t145.5 -97t176.5 -36t176.5 36t145.5 97t97 145.5t36 177t-36 177t-97 145.5t-145 97t-176.5 36zM509.5 -108q-110.5 0 -204.5 54.5t-148.5 148.5t-54.5 204.5t54.5 204.5t148.5 148.5
t204.5 54.5t204 -54.5t148 -148.5t54.5 -204.5t-54.5 -204.5t-148 -148.5t-204 -54.5zM681 332h-344q-9 0 -16.5 -10.5t-7.5 -21.5t7.5 -21.5t16.5 -10.5h344q9 0 16.5 10.5t7.5 21.5t-7.5 21.5t-16.5 10.5z" />
    <glyph glyph-name="arrowright" unicode="&#xe626;" 
d="M241.5 -199q9.5 -9 22.5 -9t22 9l475 475q9 9 9 22t-9 23l-475 475q-9 9 -22 9t-22.5 -9.5t-9.5 -22.5t9 -22l453 -453l-453 -452q-9 -10 -9 -23t9.5 -22z" />
    <glyph glyph-name="gouwuche" unicode="&#xe62d;" 
d="M353 -20q-26 0 -45 -18.5t-19 -45t19 -45.5t45.5 -19t45 19t18.5 45.5t-18.5 45t-45.5 18.5v0zM801 -20q-26 0 -45 -18.5t-19 -45t19 -45.5t45.5 -19t45 19t18.5 45.5t-18.5 45t-45.5 18.5v0zM937 624q-25 28 -63 28h-641l-2 13q-5 35 -32 59t-62 24h-40
q-13 0 -22.5 -9.5t-9.5 -22.5t9.5 -22.5t22.5 -9.5h40q11 0 20 -8.5t10 -19.5l31 -179l54 -382q5 -35 31.5 -59t61.5 -24h520q13 0 22.5 9.5t9.5 22.5t-9.5 22.5t-22.5 9.5h-520q-10 0 -19 8t-10 19l-5 38l507 31q35 0 61.5 24t30.5 58l51 288q6 48 -24 82z" />
    <glyph glyph-name="lianxiren" unicode="&#xe625;" 
d="M898 64q-27 21 -86 52t-104 52l-46 21l-113 -209l-17 50l31 63l-62 63l-62 -63l31 -63l-20 -51l-111 210q-175 -78 -236 -125q-27 -21 -48.5 -69t-30.5 -85l-8 -37h971q0 5 -2 14.5t-9 36t-16 49.5t-25.5 49t-36.5 42v0zM507 207q50 0 96.5 31.5t76 77t47 95t17.5 88.5
v37.5t-2.5 39.5t-6.5 42.5t-12 40.5t-19.5 39.5t-30 33t-41.5 27.5t-55 17t-70.5 7t-70.5 -7t-55 -17t-41.5 -27.5t-30 -33t-19.5 -39.5t-12 -40.5t-6.5 -42.5t-2.5 -39.5v-37.5q0 -39 17.5 -88.5t47.5 -95.5t76 -77t97 -31v0zM507 207z" />
    <glyph glyph-name="weixin" unicode="&#xe62c;" 
d="M501 459q19 0 30.5 11t11.5 30t-11.5 30.5t-30.5 11.5q-20 0 -35 -12t-15 -30t15 -29.5t35 -11.5v0zM268 542q-20 0 -35.5 -12t-15.5 -30t15.5 -29.5t35.5 -11.5q18 0 29.5 11.5t11.5 30t-11.5 30t-29.5 11.5v0zM1000 192q0 98 -80 172.5t-193 83.5q1 3 0 5
q-22 105 -122.5 175.5t-228.5 70.5q-95 0 -175 -40t-127 -109t-47 -150q0 -135 131 -231l-30 -90q-3 -9 4 -16q5 -4 10 -4q4 0 7 2l112 56l14 -3q64 -13 101 -13q16 0 32 1q7 1 11 6q31 -77 108.5 -125.5t173.5 -48.5q36 0 98 16l87 -47q3 -2 7 -2q5 0 10 3q8 7 5 16l-22 74
q114 90 114 198v0zM406 133q-15 -2 -30 -2q-34 0 -95 13l-19 4q-5 1 -10 -1l-84 -42l22 65q4 11 -5 17q-127 89 -127 213q0 73 42.5 135t116 98t159.5 36q116 0 208 -63t113 -157q-122 -2 -208.5 -77t-86.5 -180q0 -29 9 -60q-3 1 -5 1v0zM859 12q-9 -7 -6 -17l15 -48
l-59 32q-4 2 -8 2h-3q-64 -16 -96 -16q-112 0 -190.5 66.5t-78.5 160t78.5 160t190.5 66.5q108 0 188 -67t80 -159q0 -97 -111 -180v0zM609 300q-12 0 -22.5 -10.5t-10.5 -23t10.5 -23t22.5 -10.5q19 0 30.5 10t11.5 23.5t-11.5 23.5t-30.5 10v0zM793 300q-12 0 -22.5 -10.5
t-10.5 -23t10 -23t23 -10.5q18 0 30 10t12 23.5t-12 23.5t-30 10v0zM793 300z" />
    <glyph glyph-name="chechan" unicode="&#xe615;" 
d="M512 772q-96 0 -183.5 -37.5t-150.5 -100.5t-100.5 -150.5t-37.5 -183.5t37.5 -183.5t100.5 -150.5t150.5 -100.5t183.5 -37.5t183.5 37.5t150.5 100.5t100.5 150.5t37.5 183.5t-37.5 183.5t-100.5 150.5t-150.5 100.5t-183.5 37.5zM512 -140q-90 0 -171.5 35t-140 93.5
t-93.5 140t-35 171.5t35 171.5t93.5 140t140 93.5t171.5 35t171.5 -35t140 -93.5t93.5 -140t35 -171.5t-35 -171.5t-93.5 -140t-140 -93.5t-171.5 -35zM622 467h-243l-53 -81h350zM387 447h229l22 -34h-274zM807 412q-11 22 -23 24q-19 2 -67 5q-62 79 -76 79h-281
q-14 0 -75 -79q-48 -3 -67 -5q-12 -2 -23 -24q-5 -10 -3.5 -14.5t12.5 -8.5l28 -10q-18 -32 -25 -47q-5 -9 -5 -24q-1 -136 0 -168q0 -13 4 -18t15 -6h25.5h36h20.5q18 0 18 19v36h356v-36q0 -19 19 -19h83q10 1 14 6t4 18v39.5v69.5v41q0 35 -5 42l-22 47q13 4 28 10
q10 4 12 8.5t-3 14.5zM781 396l-37 -10q15 -44 23 -55q4 -7 4 -37v-35.5v-60v-34.5q0 -11 -3.5 -16t-13.5 -5h-34q-17 0 -17 17v31h-408v-31q0 -17 -17 -17h-8.5h-11h-13.5q-10 0 -13.5 5t-3.5 16q-1 17 -1 70.5t1 74.5q0 13 4 22l27 51q-20 6 -33 11q-11 5 -13 7.5t2 12.5
q2 4 5.5 6t5 2.5t7 1t7.5 0.5q5 1 28 1h36q55 69 69 69h256q13 0 69 -69q43 -2 57 -3q2 -1 7.5 -1t8.5 -0.5t6.5 -2t6.5 -4.5q0 -2 2 -4.5t2.5 -3.5t0.5 -3t-2 -3.5t-6 -2.5zM375.5 322.5q-11.5 1.5 -37 4t-45.5 4t-20 0.5t-1 -8.5t-1 -12.5t1.5 -12t7 -11t14.5 -5l112 -4
v7.5v12v7.5t-2 5t-9.5 7t-19 5.5zM626.5 318q-11.5 -2 -19 -5.5t-9.5 -6.5t-2 -6v-7v-12v-8q89 3 113 5q9 0 14 4t6.5 11t1.5 12.5t-1 13t-1 8.5l-20 -1.5t-45.5 -3.5t-37 -4z" />
    <glyph glyph-name="hert" unicode="&#xe616;" 
d="M729 687q-67 0 -123.5 -39t-82.5 -101q-33 59 -96.5 99.5t-134.5 40.5q-26 0 -50 -6q-82 -20 -132 -92t-45 -163q6 -111 80 -200l319 -317q20 -20 48.5 -20t48.5 20l315 315q43 39 63 102.5t20 126.5q0 97 -67.5 165.5t-162.5 68.5zM841 261l-316 -316q-5 -5 -12.5 -5
t-12.5 5l-317 315q-62 74 -67 169q-4 72 35 129.5t103 72.5q18 4 36 4q51 0 106 -34t90 -81.5t35 -84.5v0v0v0q0 42 28.5 89t77 79.5t97.5 32.5q73 0 128.5 -54.5t55.5 -128.5q0 -52 -16.5 -106t-50.5 -86z" />
    <glyph glyph-name="xiaoxituisong" unicode="&#xe617;" 
d="M512 812q-104 0 -199 -40.5t-163.5 -109t-109 -163.5t-40.5 -199t40.5 -199t109 -163.5t163.5 -109t199 -40.5t199 40.5t163.5 109t109 163.5t40.5 199t-40.5 199t-109 163.5t-163.5 109t-199 40.5zM512 -173q-96 0 -183.5 37.5t-151 101t-101 151t-37.5 183.5
t37.5 183.5t101 151t151 101t183.5 37.5t183.5 -37.5t151 -101t101 -151t37.5 -183.5t-37.5 -183.5t-101 -151t-151 -101t-183.5 -37.5zM296 492q-4 0 -8 -1q-14 -3 -23 -13.5t-9 -24.5v-306q0 -16 11.5 -27.5t28.5 -11.5h432q17 0 28.5 11.5t11.5 27.5v306q0 16 -11.5 27.5
t-28.5 11.5h-432zM704 453l-191 -153h-1h-1l-191 153h384v0zM296 423l189 -152q12 -9 27 -9t26 9l190 152v-276h-432v276z" />
    <glyph glyph-name="qichenew" unicode="&#xe618;" 
d="M957 432h-88q-5 0 -11 -3l-40 119q-9 50 -41 75.5t-78 25.5h-373q-49 0 -80 -28t-39 -73l-40 -119q-6 3 -12 3h-88q-11 0 -18 -7t-7 -18v-21q0 -10 7 -17t18 -7l33 -6q-17 -32 -17 -72l-12 -141q0 -5 1 -12q-1 -4 -1 -8v-170q0 -18 13 -30.5t31 -12.5h67q18 0 30.5 12.5
t12.5 30.5v55h574v-55q0 -18 13 -30.5t31 -12.5h67q18 0 31 12.5t13 30.5v170q0 4 -1 8q1 7 1 12l-13 141q0 40 -16 72l32 6q11 0 18 7t7 17v21q0 11 -7 18t-18 7v0v0v0v0zM236 457l29 78l1 2q1 5 3 9.5t3.5 6.5t5.5 6.5t7 7.5h456q2 -3 6 -7.5t5.5 -7t3.5 -6.5t3 -9l30 -80
l11 -43q-2 -23 -25 -40t-47 -17h-431q-24 0 -47 17t-25 40l11 43v0v0v0v0zM257 88q-28 0 -47.5 19.5t-19.5 47t19.5 47t47 19.5t47 -19.5t19.5 -47t-19.5 -47t-46.5 -19.5v0v0v0v0zM627 137h-1q0 -8 -5.5 -14t-13.5 -6h-186q-8 0 -14 6t-6 14v55q0 9 6 14.5t14 5.5h186
q8 0 14 -5.5t6 -14.5v-55v0v0v0v0zM768 88q-27 0 -46.5 19.5t-19.5 47t19.5 47t47 19.5t47 -19.5t19.5 -47t-19.5 -47t-47.5 -19.5v0v0v0v0zM768 88z" />
    <glyph glyph-name="yule" unicode="&#xe619;" 
d="M512 -211q-104 0 -198.5 40.5t-163 109t-109 163t-40.5 198.5t40.5 198.5t109 163t163 109t198.5 40.5t198.5 -40.5t163 -109t109 -163t40.5 -198.5t-40.5 -198.5t-109 -163t-163 -109t-198.5 -40.5zM512 749q-91 0 -174.5 -35.5t-143.5 -95.5t-95.5 -143.5t-35.5 -174.5
t35.5 -174.5t95.5 -143.5t143.5 -95.5t174.5 -35.5t174.5 35.5t143.5 95.5t95.5 143.5t35.5 174.5t-35.5 174.5t-95.5 143.5t-143.5 95.5t-174.5 35.5zM286 296l161 67q20 9 20 30t-20 30l-161 67q-12 5 -24.5 -0.5t-17.5 -17.5t0 -24t17 -18l91 -37l-91 -37q-12 -6 -17 -18
t0 -24q8 -20 30 -20q6 0 12 2zM778 313q5 13 0 25t-17 17l-87 38l87 38q13 5 17.5 17t-0.5 24.5t-17.5 17.5t-24.5 -1l-156 -67q-20 -8 -20 -29t20 -29l156 -67q6 -3 13 -3q21 0 29 19zM511 -19q-59 0 -106 17.5t-74 43t-45 57.5t-24 58t-6 47v32h514l-3 -34
q-1 -25 -9.5 -52.5t-28 -58.5t-47.5 -54.5t-72.5 -39.5t-98.5 -16zM327 172q5 -21 15.5 -40t30.5 -40.5t56 -34t83 -12.5q45 0 79.5 12.5t55.5 33.5t32 40.5t18 40.5h-370z" />
    <glyph glyph-name="eye" unicode="&#xe61a;" 
d="M1003 305q0 9 -1 12q0 6 -2 11q-1 0 -1 2q-1 3 -2 4q-68 149 -201.5 240t-283.5 91t-283.5 -91t-201.5 -239l-2 -6l-1 -1q0 -2 -1 -8l-2 -12v-6q1 -7 1 -8q0 -3 1 -7v0l2 -6t2 -5q68 -148 201.5 -239.5t283.5 -91.5t283.5 91t200.5 238q2 4 3 7q1 1 1 2q1 2 1 4t0.5 3.5
l0.5 1.5v0q1 8 1 13zM937 303v-1l-1 -1q-60 -130 -177 -210t-247 -80t-246.5 79.5t-178.5 210.5v2v0.5v0.5v2v0v2v2q61 130 178 210t247 80t247 -80t177 -210l1 -1v-1v-3v-2zM512 469q-68 0 -116 -48t-48 -115.5t48 -115.5t116 -48t116 48t48 115.5t-48 115.5t-116 48z
M512 207q-41 0 -69.5 29t-28.5 69.5t28.5 69.5t69.5 29t69.5 -29t28.5 -69.5t-28.5 -69.5t-69.5 -29z" />
    <glyph glyph-name="shuidi" unicode="&#xe633;" 
d="M512 -128q105 0 193.5 49.5t140 135t51.5 185.5q0 103 -56 192l-302 447q-10 15 -27 15t-27 -15l-302 -448q-55 -88 -55 -191q0 -100 51.5 -185.5t140 -135t192.5 -49.5v0zM237 398z" />
    <glyph glyph-name="zoom" unicode="&#xe61b;" 
d="M969.5 -169.5q-8.5 -8.5 -21 -8.5t-21.5 8l-242 238q-108 -86 -247 -86q-107 0 -197 51.5t-142.5 140.5t-52.5 194t52.5 194t142.5 140.5t197 51.5t197.5 -51.5t143 -140.5t52.5 -194q0 -148 -102 -259l241 -237q8 -8 8 -20.5t-8.5 -21zM438 695q-90 0 -166.5 -43.5
t-121 -119t-44.5 -164.5t44.5 -164t121 -119t166.5 -44t166.5 44t121 119t44.5 164t-44.5 164.5t-121 119t-166.5 43.5z" />
    <glyph glyph-name="kafeiting" unicode="&#xe61c;" 
d="M448 704l64 64h-64l-64 -64v-128h64v128zM640 704l64 64h-64l-64 -64v-128h64v128zM256 704l64 64h-64l-64 -64v-128h64v128zM0 -64v-64q0 -27 18.5 -45.5t45.5 -18.5h896q27 0 45.5 18.5t18.5 45.5v64h-1024zM448 0q90 0 155.5 20t96 48t47.5 56t19 48l2 20v17
q29 -17 64 -17q53 0 90.5 37.5t37.5 90.5t-37.5 90.5t-90.5 37.5q-35 0 -64 -17v81h-640v-320q0 -8 2 -21t19 -46t47.5 -58t96 -46t155.5 -21zM832 384q26 0 45 -19t19 -45t-19 -45t-45 -19t-45 19t-19 45t19 45t45 19z" />
    <glyph glyph-name="models" unicode="&#xe624;" 
d="M1018 30q-2 -14 -7 -22q-4 -8 -9.5 -10t-21.5 -1q-30 1 -104 -2l1 -16q2 -31 21 -31h86q15 0 20 3q9 6 13 42q0 4 1 13v0v3v3v2v0v16zM6 30q2 -14 6 -22t9.5 -10t21.5 -1q30 1 104 -2v-16q-3 -31 -22 -31h-86q-14 0 -20 3q-8 5 -12 42q-1 4 -1 13v0v3v3v2v0v16zM1024 219
q0 41 -4 81.5t-7 46.5q-4 8 -53 41q-7 5 -14.5 10l-10.5 7l-6 4t-4.5 4.5t-2.5 4.5l-3 6q3 1 8 3.5t7 2.5q3 0 9 -3t15 -3q14 0 33 3t24 8q9 9 9 15q0 15 -11 27q-6 8 -52 14q-17 2 -24 -3q-3 -2 -5 -13t-2 -22l-1 -10h-16q-3 7 -11.5 31.5t-18 48t-19.5 42.5q-30 53 -64 64
q-18 6 -96 14q-86 9 -192 9q-104 0 -192 -9q-79 -9 -96 -14q-34 -10 -64 -64q-10 -19 -19.5 -42.5t-18 -48t-11.5 -31.5h-16q-1 40 -8 45q-8 5 -24 3q-46 -7 -52 -14q-11 -12 -11 -27q0 -6 9 -15q5 -5 24 -8t33 -3q9 0 15 3t9 3q2 0 7.5 -2.5t7.5 -3.5l-3 -6t-2.5 -4.5
t-4.5 -4.5l-6 -4l-10.5 -7t-14.5 -10q-49 -34 -53 -41q-3 -6 -7 -46.5t-4 -81.5q0 -36 2 -84t2 -52q0 -23 2 -37t6 -22t10 -10t21 -1q31 1 104 -2q52 -2 78 -2q34 -1 46.5 3.5t21.5 4.5q6 0 44 -1.5t86 -2.5t89 -1t89 1t86 2.5t44 1.5q8 0 20.5 -4.5t47.5 -3.5q15 0 77 2
q78 3 104 2q16 -1 21.5 1t9.5 10t6 22q2 13 2 37q0 5 1.5 27.5t2.5 52t1 56.5zM172 522q8 18 25.5 43.5t27.5 31.5q17 10 108 16q95 7 179 7t180 -7q93 -6 108 -16q12 -9 28 -32.5t24 -42.5q7 -18 14.5 -43t5.5 -30q-2 -6 -3.5 -6.5t-26.5 0.5q-67 5 -330 5q-262 0 -329 -5
q-10 -1 -15.5 -1.5t-8.5 0.5t-4 1t-1.5 3l-0.5 3q-2 5 5 30t14 43zM246 271q-2 0 -16 -5.5t-25 -5.5q-10 0 -42 4t-35 5q-6 0 -15.5 -4.5l-9.5 -4.5q-5 -1 -32 8q-3 0 -7.5 1.5t-6.5 2t-5 2.5t-5 4t-3.5 6t-3.5 9q-2 10 -2 23t1 21l1 9q54 2 131 -20q28 -7 52.5 -20
t34.5 -22l10 -9q-8 0 -22 -4zM716 114q-36 -5 -204 -5q-166 0 -204 5q-25 3 -41.5 24t0.5 42q18 20 20.5 23t17 10.5t25.5 8.5t46 5q72 10 136 10q62 0 136 -10q35 -4 46 -5t25.5 -8.5t17 -10.5t20.5 -23q17 -21 0.5 -42t-41.5 -24zM984 293q-2 -7 -4 -11t-5.5 -6.5t-5 -3
t-8 -2.5t-8.5 -3q-27 -8 -32 -7q-1 0 -10 4.5t-15 3.5q-3 0 -35 -4t-42 -4q-11 0 -25 5t-16 6l-22 4q34 34 97 51q77 22 131 19l2 -36q-1 -9 -2 -16z" />
    <glyph glyph-name="iconlicai" unicode="&#xe61d;" 
d="M660 280l1 1l26 110l-94 -58l-1 -1q0 -1 1 -1l67 -50v-1zM578 291l-1 -1l1 -1v2zM660 280l1 1l26 110l-94 -58l-1 -1q0 -1 1 -1l67 -50v-1zM614 735q-87 20 -174.5 6t-163.5 -61.5t-127.5 -119t-72 -159t-6.5 -174.5t62 -163q19 -31 42 -59q13 -15 28 -28q39 -38 85 -65
q57 -33 122 -48q63 -15 127 -11l-1 31q-60 -3 -118 10q-120 29 -199 109l37 57l43 -51q5 -6 13 -6h3q9 1 13 9l87 170l78 -76q6 -6 14.5 -5t13.5 8l101 156l17 -13q11 -8 23.5 -8t21.5 8t12 21l30 125q5 17 -4 29q-15 18 -39 2l-108 -66q-18 -11 -18.5 -29.5t16.5 -31.5
l21 -16l-91 -140l-80 78q-6 7 -15 5.5t-13 -9.5l-87 -168l-44 51v0q-1 0 -1 1l-2 3l-1 -1q-5 3 -12 2q-9 -1 -13 -9l-42 -66q-18 22 -34 47q-44 71 -57 152t6 162q26 110 102 190.5t182 113t216 6.5t190.5 -102t112.5 -182t7 -216q-21 -87 -75 -157l25 -19q58 75 80 169
q28 118 -7 232t-121.5 196t-204.5 110zM593 331q-1 0 -1 1l1 1l94 58l-26 -110l-1 -1v1z" />
    <glyph glyph-name="yichuchahao" unicode="&#xe61e;" 
d="M853 -16l-25 -25l-316 316l-316 -316l-25 25l316 316l-316 316l25 25l316 -316l316 316l25 -25l-316 -316z" />
    <glyph glyph-name="zhengguiicon44" unicode="&#xe61f;" 
d="M435 556v-512l-123 92l-13 10h-17h-123q-3 0 -5 1v306q2 1 5 1h123h17l13 10zM461 633q-9 0 -16 -5l-163 -123h-123q-24 0 -40.5 -13.5t-16.5 -37.5v-308q0 -24 16.5 -37.5t40.5 -13.5h123l163 -123q7 -5 16 -5q10 0 17.5 7.5t7.5 18.5v614q0 11 -7.5 18.5t-17.5 7.5v0z
M538 121v51q53 0 90.5 37.5t37.5 90.5t-37.5 90.5t-90.5 37.5v51q74 0 126.5 -52.5t52.5 -126.5t-52.5 -126.5t-126.5 -52.5zM589 -7v51q122 0 201.5 72.5t79.5 183.5t-79.5 183.5t-201.5 72.5v51q144 0 238.5 -87t94.5 -220t-94.5 -220t-238.5 -87z" />
    <glyph glyph-name="iconfontqian" unicode="&#xe635;" 
d="M497 812q-101 0 -193 -39.5t-158.5 -106t-106 -159t-39.5 -193.5t39.5 -193t106 -158.5t158.5 -106t193 -39.5t193 39.5t158.5 106t106 158.5t39.5 193t-39.5 193.5t-106 159t-158.5 106t-193 39.5v0zM497 -130q-90 0 -172 35.5t-141.5 95t-95 141.5t-35.5 172.5
t35.5 172.5t95 141.5t141.5 95t172 35.5t172.5 -35.5t141.5 -95t94.5 -141.5t35.5 -172.5t-35.5 -172.5t-94.5 -141.5t-141.5 -95t-172.5 -35.5v0zM617 575l-79 -146q-31 -59 -38 -79h-2q-20 48 -117 225h-74l138 -238h-114v-52h133v-72h-133v-54h133v-105h66v105h128v54
h-128v72h128v52h-110l140 238h-71v0z" />
    <glyph glyph-name="paishe" unicode="&#xe620;" 
d="M528 419q-50 0 -85.5 -35.5t-35.5 -86t35.5 -86t85.5 -35.5t85.5 35.5t35.5 86t-35.5 86t-85.5 35.5v0zM832 564h-114l-76 76h-228l-76 -76h-114q-32 0 -54 -22t-22 -54v-414q0 -33 22.5 -56.5t53.5 -23.5h608q32 0 54 21.5t22 54.5v418q0 32 -22 54t-54 22v0zM528 108
q-80 0 -135 55t-55 134.5t55 135t135 55.5t135 -55.5t55 -135t-55 -134.5t-135 -55v0z" />
    <glyph glyph-name="qian" unicode="&#xe62b;" 
d="M512 812q-104 0 -199 -40.5t-163.5 -109t-109 -163.5t-40.5 -199t40.5 -199t109 -163.5t163.5 -109t199 -40.5t199 40.5t163.5 109t109 163.5t40.5 199t-40.5 199t-109 163.5t-163.5 109t-199 40.5zM760 343v-59h-178v-118h178v-60h-178v-118h-118v118h-178v60h178v118
h-178v59h178l-237 237h118l178 -177l178 177h118l-237 -237h178z" />
    <glyph glyph-name="yonghu" unicode="&#xe621;" 
d="M633 313q48 32 77.5 83.5t32.5 109.5v5.5v5.5q-5 95 -71 160t-162 68t-163.5 -67.5t-70.5 -165.5q-2 -61 28 -112.5t81 -83.5q-84 -30 -145.5 -98t-86 -158t-5.5 -181q2 -10 10 -16t18 -6h470h197q10 0 18.5 6t10.5 16q29 141 -39.5 264t-199.5 170zM335 512
q-2 71 50.5 121.5t124.5 52.5q71 2 121.5 -50.5t52.5 -123.5q-2 -74 -51.5 -123.5t-122.5 -51.5q-72 -2 -122.5 50.5t-52.5 124.5zM510 278q94 1 170.5 -51t113.5 -136t25 -175h-173h-445q-14 92 23.5 175t114 134t171.5 53z" />
    <glyph glyph-name="ya" unicode="&#xe622;" 
d="M227 301q40 8 80 18v133h-73v41h73v108h43v-108h62v-41h-62v-122q32 7 65 16q-1 -28 -2 -45q-31 -8 -63 -15v-167q0 -60 -56 -62q-21 -1 -53 -1q-2 24 -7 46q29 -2 46 -2q27 0 27 25v149q-38 -9 -77 -20zM438 564h319v-369h-43v33h-94v-180h-44v180h-94v-33h-44v369v0z
M482 416h94v107h-94v-107zM482 269h94v107h-94v-107zM714 523h-94v-107h94v107zM620 269h94v107h-94v-107zM1005 301.5q0 -100.5 -39 -192t-105.5 -158t-158 -105.5t-192 -39t-192 39t-158 105.5t-105.5 158t-39 192t39 192t105.5 158t158 105.5t192 39t192 -39t158 -105.5
t105.5 -158t39 -192zM511.5 775q-96.5 0 -184.5 -37.5t-151.5 -101t-101 -151.5t-37.5 -184.5t37.5 -184.5t101 -151.5t151.5 -101t184.5 -37.5t184.5 37.5t151.5 101t101 151.5t37.5 184.5t-37.5 184.5t-101 151.5t-151.5 101t-184.5 37.5z" />
    <glyph glyph-name="kuaiche" unicode="&#xe623;" horiz-adv-x="1025" 
d="M250 372h526v-26h-526v26zM249 305h527v-26h-527v26zM249 246h527v-26h-527v26zM743 152h-494v26h446q4 0 6.5 0.5t4.5 2t3 2t1.5 4t0.5 4.5v6v7h65v-18q0 -36 -33 -34zM984 153v-80q0 -16 -12.5 -27.5t-29.5 -11.5h-29q-18 0 -30.5 11.5t-12.5 27.5v80h-80v94h204
l-10 -94v0zM893 364q-35 -10 -58 -24.5t-23 -26.5t1 -15t19 -6t61 -2q17 1 29.5 2.5t21.5 2.5t14.5 5.5t9 6t5 7.5t2 7.5t0.5 9.5v10q1 19 -22 25.5t-60 -2.5v0zM903 449l2 -8l13 12v34q0 10 11 11l82 10q5 0 8.5 -3.5t2.5 -8.5l-11 -45q-3 -11 -11 -11h-68l-4 -11
q32 -10 55 -37t20 -58l-8 -74h-205v171h113v18v0zM38 153v-80q0 -16 12.5 -27.5t30.5 -11.5h28q18 0 30.5 11.5t12.5 27.5v80h81v94h-205l10 -94v0zM129 364q36 -10 59 -24.5t23 -26.5t-1.5 -15t-19.5 -6t-61 -2q-17 1 -29.5 2.5t-21 3t-14.5 5.5t-9 5.5t-5 7.5l-2.5 7.5
t-0.5 9.5v10q-1 19 22.5 25.5t59.5 -2.5v0zM118 443l-1 -2l-13 12v34q0 10 -11 11l-82 10q-4 0 -8 -3.5t-3 -8.5l12 -45q2 -11 11 -11h67l4 -11q-32 -10 -55 -37t-20 -58l8 -74h206v171h-115v12zM227 656h50v-27h-38q-13 0 -22.5 -8t-13.5 -16.5t-10 -25.5q-1 -4 -2 -6
l-51 -144h-25l53 168q18 59 59 59v0zM772 656h27q42 0 59 -59l51 -168h-26l-49 144q-1 3 -3.5 12t-4 12t-4.5 10t-5.5 9.5l-6.5 6.5t-9 5t-12 1h-17v27zM564 656h218v-26h-221l-5 -54h87h43h90v-27h-90v-45h90v-26h-90h-43h-120v26h120v45h-120l8 81h-8v26h10h31zM249 668
h29v-13h10v13h43v-260h-43v221h-10v-179q0 -19 -18 -19h-11v237v0zM461 575v42q0 12 -12 12h-26l-7 -54h45v0zM509 575v-26h-29h-49h-4h-54h-21v26h24l8 54h-32v26h35h54h41q12 0 16.5 -5.5t4.5 -20.5v-54h6v0zM439 668l-37 -260h-50l37 260h50zM434 554l20 -146h50l-20 146
h-50zM643 612h43v-204h-43v204zM586 668l-16 -119h-51l17 119h50zM489 300h43v-132h-43v132zM250 356h43v-37h-43v37zM733 356h43v-37h-43v37zM484 392l4 -41h50l-4 41h-50z" />
    <glyph glyph-name="kuaichedao" unicode="&#xe627;" 
d="M583 449h-127l-36 -185h126zM807 505h-115l-5 -25h115q50 0 79 -36.5t18 -86.5q-10 -51 -53 -87q-44 -36 -95 -36h-113h-97h-128l-5 -26h114v0h13h98h50v0h63q62 0 114.5 43.5t65 105t-22.5 105t-96 43.5zM828.5 291.5q32.5 27.5 40.5 65.5t-13.5 65t-60.5 27h-114
l-37 -185h114q38 0 70.5 27.5zM843 812h-662q-74 0 -127.5 -53.5t-53.5 -127.5v-662q0 -74 53.5 -127.5t127.5 -53.5h662q74 0 127.5 53.5t53.5 127.5v662q0 74 -53.5 127.5t-127.5 53.5zM817 1h-98l27 135h98zM955 356.5q-15 -73.5 -78 -126t-137 -52.5h-113l-35 -177h-98
l35 177h-127l-35 -177h-97l35 177h-150l4 19h-1l-4 -19h-37h-39h-38l1 4h38l-1 -4l2 11h39l-2 -11l4 19h37l3 11h150l5 26h-149l3 19v0l-4 -19h-3h-35h-38h-39l1 4h39l-1 -4l2 11h38l2 8h38l2 11h150l37 185h-122h-1h-38h-38h-39l1 5h39l-1 -5l2 11h38l2 8h38l2 12h102h21
h97h29h98l5 25h-103h-24h-97h-26h-96h-1h-29h-8h-39h-38l1 5h38l-1 -5l2 11h39l-2 -11l3 19h38l3 12h122l29 144h97l-29 -144h127l29 144h98l-29 -144h115q74 0 115.5 -53t26.5 -126.5z" />
    <glyph glyph-name="chedao" unicode="&#xe628;" 
d="M727 -6h99l28 138h-100zM33 178l-1 -4h39l1 4h-39zM74 185l-3 -11h40l2 11h-39zM111 174h38l4 19h-39zM85 242l-2 -11h39l2 11h-39zM45 236l-1 -5h39l1 5h-39zM122 231h36h3l4 20h-39zM116 456l-1 -4h40v4h-39zM168 520l-2 -11h39l3 11h-40zM128 513l-1 -4h39l1 4h-39z
M822 540h-117l29 147h-100l-29 -147h-130l29 147h-99l-30 -147h-125l-2 -12h-39l-4 -19h9h30h1h98h26h100h24h106l-5 -27h-101h-29h-100h-21h-104l-3 -11h-38l-2 -8h-39l-2 -11h39h38h1h125l-38 -190h-153l-2 -11v0l-4 -20h153l-5 -26h-154l-2 -12h1l-4 -19h153l-36 -180
h100l35 180h130l-36 -180h100l36 180h116q75 0 139.5 53.5t80 129t-27 129.5t-118.5 54zM687 452h117q39 0 61.5 -28t14.5 -67t-41.5 -67t-72.5 -28h-117zM458 452h129l-37 -190h-130zM937 357q-13 -63 -66.5 -107.5t-116.5 -44.5h-65v0h-51h-100h-13v0h-116l5 26h130h99
h116q52 0 96.5 37t55 89t-19 88.5t-80.5 36.5h-118l5 27h118q63 0 98.5 -44.5t22.5 -107.5z" />
    <glyph glyph-name="kuai" unicode="&#xe629;" 
d="M723 385h78v-78h-78v78zM904 385h88v-78h-88v78zM814 463h78v-228h-78v228zM890 699l-179 113v0l-238 -76l-239 76v0l-178 -113v-1h-3v-214h78v170l114 72l227 -72h1v0v0v0l227 72l114 -72v-170h78v214h-2v1zM161 547h78v-479h-78v479zM53 464h78v-298h-78v298zM271 489
h151v-78h-151v78zM547 285l82 -79h70v29v50v126v46v32h-176v-78h98v-126h-74zM271 206h41l82 79h-123v-79zM433 596h79v-217h-79v217zM301 68l172 165l171 -165l54 57l-225 216h-1v0l-225 -216zM892 218h-78v-153l-339 -186l-344 188v79h-78v-125v0l421 -231v0h1v0v0
l417 229v8v0v191z" />
    <glyph glyph-name="xiaoxi" unicode="&#xe62f;" 
d="M257 586h505v-50h-505v50zM257 385h505v-50h-505v50zM753 84q2 16 15 24q101 59 158 153t57 202q0 114 -63 211.5t-171 154t-235.5 56.5t-236 -56.5t-171.5 -154t-63 -211.5q0 -113 61 -209t166 -153t230 -60q11 -16 25.5 -32.5t46.5 -41t70 -43t97 -31.5t125 -13
q18 0 23.5 16.5t-8.5 27.5q-54 42 -84.5 78.5t-36.5 53t-5 28.5zM535 77q-7 13 -22 13q-114 0 -211 50t-153.5 136t-56.5 187t56.5 187t153.5 136t211 50t211.5 -50t153.5 -136t56 -187q0 -95 -50 -177.5t-139 -134.5q-13 -6 -25.5 -22t-14.5 -39q-7 -67 88 -157
q-53 7 -99.5 24t-73 35t-48 39.5t-28 30.5t-9.5 15z" />
    <glyph glyph-name="bi" unicode="&#xe630;" 
d="M0 88v-216h216l626 632l-216 216zM1007 669q16 17 16 40t-16 40l-130 130q-17 16 -40 16t-40 -16l-103 -103l216 -216z" />
  </font>
</defs>
</svg>
